<svg width="100" height="86" viewBox="0 0 100 86" fill="none" xmlns="http://www.w3.org/2000/svg">
<g id="Fire">
<g id="Group 1">
<g id="Rock 8">
<path d="M75.4595 50.8154C75.9512 56.1173 80.4366 60.0364 85.4779 59.5689C90.5192 59.1014 100.1 59.4122 99.608 54.1103C99.1163 48.8083 88.7387 39.9014 83.6973 40.3689C78.656 40.8364 74.9678 45.5135 75.4595 50.8154Z" fill="#A39E9E"/>
<path d="M76.0903 50.0695C76.5471 54.995 80.6934 58.6378 85.3515 58.2058C90.0095 57.7739 98.8621 58.067 98.4054 53.1415C97.9486 48.216 88.3554 39.937 83.6973 40.3689C79.0393 40.8009 75.6335 45.144 76.0903 50.0695Z" fill="#8C8989"/>
<path d="M79.4548 44.9943C79.9 49.7943 79.4112 56.0222 83.768 55.6181C88.1248 55.2141 99.8665 57.4886 99.4214 52.6885C98.9762 47.8885 89.9704 39.7886 85.6137 40.1926C81.2569 40.5967 79.0097 40.1943 79.4548 44.9943Z" fill="#707070"/>
</g>
<g id="Rock 4">
<path d="M3.10803 53.1487C4.27224 57.3917 8.66002 59.8862 12.9084 58.7205C17.1568 57.5548 25.3985 56.3166 24.2343 52.0737C23.0701 47.8307 12.9408 42.1898 8.69242 43.3555C4.44404 44.5212 1.94382 48.9058 3.10803 53.1487Z" fill="#A39E9E"/>
<path d="M4.42754 52.2014C5.5091 56.1431 9.56803 58.4654 13.4934 57.3883C17.4188 56.3112 25.0352 55.1719 23.9537 51.2302C22.8721 47.2885 13.7078 43.3588 9.78246 44.4359C5.85708 45.513 3.34597 48.2597 4.42754 52.2014Z" fill="#8C8989"/>
<path d="M6.97942 48.0717C8.03343 51.913 10.2108 54.1386 13.8823 53.1312C17.5538 52.1238 24.9292 54.7857 23.8752 50.9444C22.8212 47.1031 13.979 41.9061 10.3075 42.9135C6.63602 43.921 5.92541 44.2304 6.97942 48.0717Z" fill="#707070"/>
</g>
<g id="largeFire">
<path d="M50.9023 64C28.2637 49.0127 -3.27698 50.9948 51.0558 0C105.388 50.9949 73.541 49.0127 50.9023 64Z" fill="#FFA901"/>
<path d="M50.9333 68.7622C51.0962 69.4698 51.1028 70.2123 50.9255 71C50.6879 70.2138 50.7052 69.4728 50.9333 68.7622C47.9895 55.974 -6.01979 54.5862 51.0957 4C107.687 54.1218 54.4378 57.8495 50.9333 68.7622Z" fill="#FB8700"/>
<path d="M50.7615 68C42.9496 48.7407 -3.16974 55.8077 50.9143 8C104.998 55.8077 59.6259 49.1111 50.7615 68Z" fill="#ED4602"/>
</g>
<g id="smallLeft-fire">
<path d="M36.9284 71C20.3267 59.9937 -2.8031 61.4493 37.0409 24C76.8849 61.4493 53.5301 59.9937 36.9284 71Z" fill="#FFA901"/>
<path d="M36.9513 74.3634C37.0703 74.8809 37.0751 75.4239 36.9456 76C36.7719 75.425 36.7846 74.8831 36.9513 74.3634C34.8001 65.0108 -4.66828 63.9959 37.07 27C78.425 63.6562 39.5123 66.3825 36.9513 74.3634Z" fill="#FB8700"/>
<path d="M36.8258 74C31.117 59.8765 -2.58556 65.0589 36.9374 30C76.4603 65.059 43.3035 60.1481 36.8258 74Z" fill="#ED4602"/>
</g>
<g id="smallRight-Fire">
<path d="M61.9284 71C45.3267 59.9937 22.1969 61.4493 62.0409 24C101.885 61.4493 78.5301 59.9937 61.9284 71Z" fill="#FFA901"/>
<path d="M61.9513 74.3634C62.0703 74.8809 62.0751 75.4239 61.9456 76C61.7719 75.425 61.7846 74.8831 61.9513 74.3634C59.8001 65.0108 20.3317 63.9959 62.07 27C103.425 63.6562 64.5123 66.3825 61.9513 74.3634Z" fill="#FB8700"/>
<path d="M61.8258 74C56.117 59.8765 22.4144 65.0589 61.9374 30C101.46 65.059 68.3035 60.1481 61.8258 74Z" fill="#ED4602"/>
</g>
<g id="Rock 7">
<path d="M73.2705 63.073C73.7622 68.3749 78.2476 72.294 83.2889 71.8264C88.3303 71.3589 97.9107 71.6697 97.419 66.3678C96.9274 61.0659 86.5497 52.159 81.5084 52.6265C76.4671 53.094 72.7788 57.7711 73.2705 63.073Z" fill="#A39E9E"/>
<path d="M73.9013 62.3271C74.3581 67.2526 78.5045 70.8954 83.1625 70.4634C87.8206 70.0314 96.6732 70.3246 96.2164 65.3991C95.7596 60.4736 86.1664 52.1945 81.5084 52.6265C76.8503 53.0585 73.4445 57.4016 73.9013 62.3271Z" fill="#8C8989"/>
<path d="M77.2659 57.2519C77.711 62.0519 77.2223 68.2797 81.579 67.8757C85.9358 67.4717 97.6775 69.7461 97.2324 64.9461C96.7873 60.1461 87.7815 52.0462 83.4247 52.4502C79.0679 52.8542 76.8207 52.4518 77.2659 57.2519Z" fill="#707070"/>
</g>
<g id="Rock 6">
<path d="M51.7219 71.9539C52.2836 78.0111 57.6556 82.4654 63.7205 81.9029C69.7854 81.3405 81.3044 81.6424 80.7427 75.5852C80.1809 69.5281 67.7512 59.4057 61.6863 59.9681C55.6214 60.5305 51.1602 65.8968 51.7219 71.9539Z" fill="#A39E9E"/>
<path d="M52.4846 71.0979C53.0064 76.725 57.9723 80.8654 63.5761 80.3457C69.1799 79.8261 79.8237 80.1118 79.3019 74.4847C78.78 68.8576 67.2901 59.4484 61.6863 59.9681C56.0825 60.4878 51.9628 65.4708 52.4846 71.0979Z" fill="#8C8989"/>
<path d="M56.5588 65.2783C57.0674 70.7621 56.4449 77.883 61.6863 77.3969C66.9277 76.9109 81.0347 79.4451 80.5261 73.9613C80.0176 68.4775 69.2331 59.2699 63.9917 59.7559C58.7503 60.242 56.0503 59.7946 56.5588 65.2783Z" fill="#707070"/>
</g>
<g id="Rock 5">
<path d="M31.803 62.8668C31.4551 69.5046 25.7852 74.6032 19.1389 74.2549C12.4926 73.9066 -0.0705186 74.7409 0.277358 68.1031C0.625235 61.4653 13.7524 49.8691 20.3987 50.2174C27.045 50.5657 32.1509 56.229 31.803 62.8668Z" fill="#A39E9E"/>
<path d="M29.5497 61.8949C29.2266 68.0615 23.9863 72.7995 17.8453 72.4777C11.7044 72.1558 0.0959807 72.9342 0.419161 66.7677C0.742341 60.6011 12.998 51.842 19.1389 52.1639C25.2799 52.4857 29.8729 55.7284 29.5497 61.8949Z" fill="#8C8989"/>
<path d="M26.2303 61.8949C25.9154 67.9043 24.8828 71.1811 19.139 70.8801C13.3952 70.5791 0.127646 72.33 0.442592 66.3206C0.757538 60.3112 12.1286 49.7857 17.8724 50.0867C23.6162 50.3878 26.5453 55.8855 26.2303 61.8949Z" fill="#707070"/>
</g>
<g id="Rock 4_2">
<path d="M57.9149 74.0755C57.3365 80.3118 50.6147 84.7875 42.9014 84.0722C35.188 83.3569 20.5686 83.4118 21.147 77.1754C21.7253 70.9391 37.2823 60.773 44.9957 61.4884C52.7091 62.2037 58.4932 67.8391 57.9149 74.0755Z" fill="#A39E9E"/>
<path d="M55.3222 73.0282C54.7849 78.8218 48.5718 82.9827 41.4449 82.3218C34.318 81.6608 20.8095 81.7186 21.3467 75.925C21.884 70.1313 36.2636 60.6803 43.3906 61.3412C50.5175 62.0021 55.8595 67.2346 55.3222 73.0282Z" fill="#8C8989"/>
<path d="M51.1587 68.6852C50.6351 74.3313 46.1381 79.5802 39.4722 78.962C32.8062 78.3439 20.8621 81.1509 21.3857 75.5049C21.9093 69.8589 35.3977 60.5999 42.0637 61.2181C48.7297 61.8363 51.6823 63.0392 51.1587 68.6852Z" fill="#707070"/>
</g>
</g>
</g>
</svg>
