<svg width="1440" height="372" viewBox="0 0 1440 372" fill="none" xmlns="http://www.w3.org/2000/svg">
<g clip-path="url(#clip0_58_544)" filter="url(#filter0_d_58_544)">
<path d="M0 344.403L26.7 344.279C53.55 344.217 106.95 343.968 160.2 344.279C213.45 344.59 266.55 345.46 319.8 345.958C373.05 346.455 426.45 346.704 480 346.766C533.55 346.89 586.95 346.89 640.2 346.455C693.45 346.082 746.55 345.212 799.8 345.958C853.05 346.704 906.45 348.942 960 348.631C1013.55 348.32 1066.95 345.46 1120.2 344.901C1173.45 344.403 1226.55 346.268 1279.8 347.387C1333.05 348.569 1386.45 348.942 1413.3 349.19L1440 349.377V373.622H1413.3C1386.45 373.622 1333.05 373.622 1279.8 373.622C1226.55 373.622 1173.45 373.622 1120.2 373.622C1066.95 373.622 1013.55 373.622 960 373.622C906.45 373.622 853.05 373.622 799.8 373.622C746.55 373.622 693.45 373.622 640.2 373.622C586.95 373.622 533.55 373.622 480 373.622C426.45 373.622 373.05 373.622 319.8 373.622C266.55 373.622 213.45 373.622 160.2 373.622C106.95 373.622 53.55 373.622 26.7 373.622H0V344.403Z" fill="#3E7E30"/>
<path d="M0 351.242L26.7 351.988C53.55 352.672 106.95 354.164 160.2 355.283C213.45 356.402 266.55 357.272 319.8 357.148C373.05 357.023 426.45 356.029 480 354.847C533.55 353.728 586.95 352.485 640.2 352.174C693.45 351.863 746.55 352.485 799.8 353.542C853.05 354.537 906.45 356.029 960 355.904C1013.55 355.78 1066.95 354.164 1120.2 353.853C1173.45 353.542 1226.55 354.537 1279.8 354.35C1333.05 354.164 1386.45 352.672 1413.3 351.988L1440 351.242V373.622H1413.3C1386.45 373.622 1333.05 373.622 1279.8 373.622C1226.55 373.622 1173.45 373.622 1120.2 373.622C1066.95 373.622 1013.55 373.622 960 373.622C906.45 373.622 853.05 373.622 799.8 373.622C746.55 373.622 693.45 373.622 640.2 373.622C586.95 373.622 533.55 373.622 480 373.622C426.45 373.622 373.05 373.622 319.8 373.622C266.55 373.622 213.45 373.622 160.2 373.622C106.95 373.622 53.55 373.622 26.7 373.622H0V351.242Z" fill="#479337"/>
<path d="M0 361.188L26.7 361.064C53.55 361.002 106.95 360.753 160.2 360.442C213.45 360.131 266.55 359.758 319.8 360.256C373.05 360.753 426.45 362.245 480 362.432C533.55 362.618 586.95 361.623 640.2 361.934C693.45 362.245 746.55 363.861 799.8 363.799C853.05 363.675 906.45 361.81 960 361.313C1013.55 360.753 1066.95 361.623 1120.2 361.623C1173.45 361.623 1226.55 360.753 1279.8 361.499C1333.05 362.245 1386.45 364.483 1413.3 365.664L1440 366.783V373.622H1413.3C1386.45 373.622 1333.05 373.622 1279.8 373.622C1226.55 373.622 1173.45 373.622 1120.2 373.622C1066.95 373.622 1013.55 373.622 960 373.622C906.45 373.622 853.05 373.622 799.8 373.622C746.55 373.622 693.45 373.622 640.2 373.622C586.95 373.622 533.55 373.622 480 373.622C426.45 373.622 373.05 373.622 319.8 373.622C266.55 373.622 213.45 373.622 160.2 373.622C106.95 373.622 53.55 373.622 26.7 373.622H0V361.188Z" fill="#51A83E"/>
</g>
<defs>
<filter id="filter0_d_58_544" x="-4" y="0" width="1448" height="381" filterUnits="userSpaceOnUse" color-interpolation-filters="sRGB">
<feFlood flood-opacity="0" result="BackgroundImageFix"/>
<feColorMatrix in="SourceAlpha" type="matrix" values="0 0 0 0 0 0 0 0 0 0 0 0 0 0 0 0 0 0 127 0" result="hardAlpha"/>
<feOffset dy="4"/>
<feGaussianBlur stdDeviation="2"/>
<feComposite in2="hardAlpha" operator="out"/>
<feColorMatrix type="matrix" values="0 0 0 0 0 0 0 0 0 0 0 0 0 0 0 0 0 0 0.25 0"/>
<feBlend mode="normal" in2="BackgroundImageFix" result="effect1_dropShadow_58_544"/>
<feBlend mode="normal" in="SourceGraphic" in2="effect1_dropShadow_58_544" result="shape"/>
</filter>
<clipPath id="clip0_58_544">
<rect width="1440" height="373"/>
</clipPath>
</defs>
</svg>
