<svg width="100" height="68" viewBox="0 0 100 68" fill="none" xmlns="http://www.w3.org/2000/svg">
<g id="Logo">
<line id="Keycaps" x1="90.8908" y1="9.94219" x2="85.1512" y2="9.48303" stroke="black"/>
<line id="Keycaps_2" x1="81.4899" y1="9.25423" x2="32.1293" y2="6.49922" stroke="black"/>
<line id="Keycaps_3" x1="13.4024" y1="9.81721" x2="16.387" y2="6.14387" stroke="black"/>
<line id="Keycaps_4" x1="16.7952" y1="5.95957" x2="85.2112" y2="8.71458" stroke="black"/>
<line id="Keycaps_5" x1="85.7385" y1="8.82821" x2="89.6415" y2="12.0424" stroke="black"/>
<line id="Keycaps_6" x1="89.8231" y1="12.4055" x2="91.2006" y2="42.481" stroke="black"/>
<line id="Keycaps_7" x1="90.8982" y1="42.7646" x2="88.3728" y2="46.8971" stroke="black"/>
<line id="Keycaps_8" x1="87.6936" y1="47.1359" x2="17.6705" y2="43.9217" stroke="black"/>
<line id="Keycaps_9" x1="17.2402" y1="43.6398" x2="13.5668" y2="41.8032" stroke="black"/>
<line id="Keycaps_10" x1="13.0609" y1="41.1227" x2="13.2922" y2="9.89927" stroke="black"/>
<line id="Keycaps_11" x1="85.5502" y1="8.5017" x2="94.9632" y2="11.0271" stroke="black"/>
<line id="Keycaps_12" x1="95.146" y1="10.89" x2="97.4418" y2="12.7267" stroke="black"/>
<line id="Keycaps_13" x1="97.1702" y1="13.1098" x2="97.859" y2="60.1746" stroke="black"/>
<line id="Keycaps_14" x1="97.7878" y1="60.4391" x2="96.4103" y2="62.735" stroke="black"/>
<line id="Keycaps_15" x1="95.9542" y1="62.977" x2="3.89093" y2="57.9261" stroke="black"/>
<line id="Keycaps_16" x1="3.20366" y1="57.3185" x2="2.7445" y2="55.4819" stroke="black"/>
<line id="Keycaps_17" x1="2.72963" y1="55.353" x2="3.42533" y2="9.4363" stroke="black"/>
<line id="Keycaps_18" x1="3.51832" y1="9.14379" x2="4.89582" y2="7.30711" stroke="black"/>
<line id="Keycaps_19" x1="5.2374" y1="7.11054" x2="16.9462" y2="5.73304" stroke="black"/>
<line id="Keycaps_20" x1="14.1865" y1="41.202" x2="3.39607" y2="55.2066" stroke="black"/>
<line id="Keycaps_21" x1="18.5119" y1="43.5402" x2="4.96648" y2="57.5449" stroke="black"/>
<line id="Keycaps_22" x1="86.7796" y1="46.4001" x2="95.2743" y2="62.2414" stroke="black"/>
<line id="Keycaps_23" x1="88.8364" y1="46.1536" x2="97.331" y2="60.6174" stroke="black"/>
<path id="Connor J" d="M30.5138 30.3098C29.1549 30.254 28.1324 29.8077 27.4461 28.9709C26.7602 28.1261 26.446 27.0002 26.5038 25.5934C26.5418 24.6662 26.7628 23.8666 27.1667 23.1946C27.5789 22.5149 28.1244 22.0008 28.8032 21.6524C29.4821 21.3039 30.2412 21.1469 31.0805 21.1813C31.4322 21.1957 31.7709 21.2337 32.0967 21.2951C32.4227 21.3485 32.8081 21.4203 33.2528 21.5106C33.5862 21.5804 33.7689 21.6159 33.8009 21.6172L33.5677 24.0817L32.4646 24.0365L32.1632 22.3066C32.0789 22.2151 31.93 22.1369 31.7165 22.0721C31.503 22.0073 31.2283 21.968 30.8926 21.9543C30.2132 21.9264 29.6527 22.2197 29.2111 22.8341C28.7779 23.4408 28.5369 24.3397 28.488 25.5307C28.4408 26.6817 28.5981 27.629 28.9599 28.3724C29.3217 29.1159 29.8783 29.503 30.6297 29.5339C30.9894 29.5486 31.2665 29.528 31.4609 29.4719C31.6637 29.4081 31.8357 29.3151 31.9768 29.1928L32.555 27.9795L33.5583 28.1167L33.2422 29.9653C33.0737 29.9744 32.9045 29.9995 32.7347 30.0406C32.5732 30.074 32.4723 30.0939 32.432 30.1002C32.1087 30.175 31.8061 30.2307 31.5244 30.2671C31.2503 30.312 30.9135 30.3262 30.5138 30.3098ZM34.5426 27.0161C34.5735 26.2648 34.7476 25.6314 35.065 25.116C35.3904 24.6009 35.8102 24.2217 36.3246 23.9786C36.8394 23.7275 37.3925 23.6141 37.984 23.6384C38.9911 23.6797 39.7537 24.0232 40.2717 24.669C40.798 25.3071 41.0393 26.1577 40.9957 27.2208C40.9645 27.9802 40.7861 28.6214 40.4604 29.1445C40.143 29.6599 39.7271 30.0392 39.2127 30.2823C38.7066 30.5178 38.1538 30.6232 37.5543 30.5986C36.5552 30.5576 35.7924 30.2181 35.2662 29.5799C34.7402 28.9338 34.499 28.0792 34.5426 27.0161ZM37.6822 29.8232C38.5855 29.8602 39.0728 29.0075 39.1443 27.265C39.1817 26.3537 39.1021 25.6579 38.9057 25.1774C38.7095 24.689 38.3677 24.4348 37.8801 24.4148C36.9529 24.3767 36.4535 25.229 36.382 26.9715C36.3446 27.8827 36.428 28.5827 36.6321 29.0715C36.8446 29.5526 37.1946 29.8032 37.6822 29.8232ZM42.8451 25.1469L42.0866 24.8996L42.1206 24.0723L44.1212 23.9022L44.1572 23.9036L44.4471 24.1557L44.4279 24.6233L44.4041 24.9106C44.6947 24.6583 45.0677 24.4454 45.5232 24.2719C45.9787 24.0985 46.4343 24.0211 46.8899 24.0398C47.3775 24.0598 47.7534 24.1673 48.0176 24.3623C48.2902 24.5496 48.4785 24.8376 48.5827 25.2262C48.6868 25.6147 48.7255 26.1368 48.6986 26.7922L48.5628 30.1014L49.2903 30.2274L49.2608 30.9468L46.1674 30.8198L46.1969 30.1005L46.8483 30.0311L46.984 26.7219C47.0011 26.3062 46.9864 25.9814 46.9399 25.7473C46.8938 25.5052 46.797 25.329 46.6494 25.2189C46.5101 25.1011 46.3045 25.0366 46.0328 25.0255C45.5772 25.0068 45.0815 25.1826 44.5459 25.553L44.3668 29.9173L45.0818 30.0547L45.0523 30.7741L41.9229 30.6457L41.9524 29.9263L42.6523 29.8469L42.8451 25.1469ZM51.0062 25.4817L50.2477 25.2344L50.2817 24.4071L52.2823 24.237L52.3183 24.2384L52.6082 24.4905L52.589 24.9582L52.5652 25.2454C52.8558 24.9931 53.2288 24.7802 53.6843 24.6068C54.1398 24.4333 54.5954 24.3559 55.051 24.3746C55.5386 24.3946 55.9145 24.5021 56.1787 24.6971C56.4513 24.8844 56.6396 25.1724 56.7438 25.561C56.848 25.9496 56.8866 26.4716 56.8597 27.127L56.7239 30.4363L57.4514 30.5622L57.4219 31.2816L54.3285 31.1547L54.358 30.4353L55.0094 30.3659L55.1451 27.0567C55.1622 26.641 55.1475 26.3162 55.1011 26.0821C55.0549 25.84 54.9581 25.6639 54.8105 25.5537C54.6712 25.4359 54.4656 25.3714 54.1939 25.3603C53.7383 25.3416 53.2426 25.5174 52.707 25.8878L52.528 30.2521L53.2429 30.3895L53.2134 31.1089L50.084 30.9805L50.1136 30.2611L50.8134 30.1818L51.0062 25.4817ZM58.4054 27.9951C58.4362 27.2438 58.6103 26.6104 58.9277 26.0949C59.2531 25.5798 59.673 25.2007 60.1874 24.9576C60.7021 24.7065 61.2552 24.5931 61.8467 24.6174C62.8539 24.6587 63.6164 25.0022 64.1344 25.648C64.6607 26.2861 64.902 27.1367 64.8584 28.1998C64.8273 28.9592 64.6488 29.6004 64.3231 30.1235C64.0057 30.6389 63.5898 31.0182 63.0754 31.2613C62.5693 31.4968 62.0166 31.6022 61.4171 31.5776C60.4179 31.5366 59.6552 31.197 59.1289 30.5589C58.6029 29.9128 58.3618 29.0582 58.4054 27.9951ZM61.545 30.8022C62.4482 30.8392 62.9356 29.9865 63.007 28.244C63.0444 27.3327 62.9649 26.6369 62.7684 26.1564C62.5723 25.668 62.2304 25.4137 61.7428 25.3937C60.8156 25.3557 60.3162 26.208 60.2448 27.9505C60.2074 28.8617 60.2907 29.5617 60.4949 30.0505C60.7073 30.5316 61.0574 30.7822 61.545 30.8022ZM65.8387 30.9183L66.6339 30.8548L66.8278 26.1308L66.0693 25.8835L66.1032 25.0562L67.972 24.8807L68.0079 24.8821L68.2978 25.1342L68.287 25.398L68.2112 26.3677L68.2472 26.3692C68.3097 26.2116 68.4496 26.0212 68.6669 25.7979C68.8846 25.5666 69.1529 25.3695 69.4719 25.2064C69.7991 25.0357 70.1466 24.9579 70.5143 24.9729C70.6902 24.9802 70.8411 25.0104 70.967 25.0636L70.8932 26.8621C70.6603 26.6844 70.372 26.5885 70.0283 26.5744C69.4448 26.5504 68.9308 26.6855 68.4864 26.9795L68.325 30.9122L69.7114 31.0772L69.6824 31.7846L65.8097 31.6257L65.8387 30.9183ZM73.5363 33.5761C73.8603 33.4853 74.1636 33.3135 74.4462 33.0609C74.7368 32.8086 74.9542 32.4853 75.0985 32.0908C75.1976 31.8227 75.2748 31.5016 75.3302 31.1275C75.3859 30.7455 75.4278 30.2108 75.456 29.5233L75.6818 24.02L74.6096 23.8078L74.6401 23.0645L78.4769 23.2219L78.4464 23.9652L77.4328 24.0798L77.2395 28.7918C77.2044 29.6471 77.1652 30.3101 77.1219 30.7807C77.0869 31.2436 77.0317 31.6137 76.9562 31.8908C76.7618 32.5314 76.3961 33.0528 75.8592 33.4552C75.3219 33.8655 74.671 34.119 73.9064 34.2158L73.5363 33.5761Z" fill="#161616"/>
</g>
</svg>
