<svg width="212" height="164" viewBox="0 0 212 164" fill="none" xmlns="http://www.w3.org/2000/svg">
<path d="M-6 84C-6 130.392 31.6081 168 78 168C124.392 168 211.54 178.404 211.54 132.012C211.54 85.6204 124.392 0 78 0C31.6081 0 -6 37.6081 -6 84Z" fill="#A39E9E"/>
<path d="M10.0396 78.049C10.0396 121.147 44.7884 156.086 87.6531 156.086C130.518 156.086 211.04 165.751 211.04 122.653C211.04 79.5544 130.518 0.0123815 87.6531 0.0123815C44.7884 0.0123815 10.0396 34.9506 10.0396 78.049Z" fill="#8C8989"/>
<path d="M67.0396 48.0123C67.0396 90.0127 99.5409 124.061 139.633 124.061C179.726 124.061 211.04 161.528 211.04 119.528C211.04 77.5277 135.726 0.0122681 95.6333 0.0122681C55.5409 0.0122681 67.0396 6.01188 67.0396 48.0123Z" fill="#707070"/>
<path d="M116.21 128.744C114.917 153.416 93.8422 172.368 69.1382 171.073C44.4343 169.778 -2.26229 172.879 -0.969253 148.207C0.323787 123.535 49.1168 80.4322 73.8208 81.7269C98.5247 83.0216 117.503 104.072 116.21 128.744Z" fill="#A39E9E"/>
<path d="M107.835 125.132C106.633 148.052 87.1557 165.664 64.33 164.467C41.5043 163.271 -1.64342 166.164 -0.44218 143.244C0.759064 120.323 45.8544 80.2678 68.6801 81.4641C91.5058 82.6604 109.036 102.211 107.835 125.132Z" fill="#8C8989"/>
<path d="M68.6803 99C67.5096 121.337 80.8494 126.251 59.5 125.132C38.1506 124.013 -1.52573 163.918 -0.355088 141.582C0.815551 119.245 43.0811 80.1224 64.4306 81.2413C85.78 82.3602 69.8509 76.6633 68.6803 99Z" fill="#707070"/>
<path d="M73.3884 141.09C74.1551 155.719 86.6518 166.957 101.3 166.189C115.949 165.421 143.639 167.26 142.872 152.63C142.105 138.001 113.172 112.442 98.5238 113.21C83.8752 113.978 72.6217 126.46 73.3884 141.09Z" fill="#A39E9E"/>
<path d="M78.3547 138.947C79.067 152.539 90.6166 162.982 104.152 162.272C117.686 161.563 143.272 163.278 142.559 149.687C141.847 136.096 114.835 116.791 101.3 117.5C87.7655 118.209 77.6424 125.356 78.3547 138.947Z" fill="#8C8989"/>
<path d="M101.3 125.5C101.994 138.745 114.84 140.663 127.5 140C140.16 139.337 143.202 161.947 142.508 148.702C141.814 135.457 116.751 112.258 104.092 112.922C91.4324 113.585 100.606 112.255 101.3 125.5Z" fill="#707070"/>
<path d="M166.156 44.3218L139.54 46.2936M154.658 44.8223L139.364 36L134.54 37.2943M143.234 49.1656L145.893 45.8816M160.308 64.4251L166.156 44L127.049 73.4538M160.308 64.4251L154.515 63.4662M160.308 64.4251L157.013 78.4477M140.88 63.1767L138.188 78.7374L132.043 78.4477M132.282 68.994L122 69.5211M159.224 71.9801L164.789 72.4307" stroke="black" stroke-linecap="round"/>
<path d="M166.156 44.3218L139.54 46.2936M154.658 44.8223L139.364 36L134.54 37.2943M143.234 49.1656L145.893 45.8816M160.308 64.4251L166.156 44L127.049 73.4538M160.308 64.4251L154.515 63.4662M160.308 64.4251L157.013 78.4477M140.88 63.1767L138.188 78.7374L132.043 78.4477M132.282 68.994L122 69.5211M159.224 71.9801L164.789 72.4307" stroke="black" stroke-linecap="round"/>
<path d="M166.156 44.3218L139.54 46.2936M154.658 44.8223L139.364 36L134.54 37.2943M143.234 49.1656L145.893 45.8816M160.308 64.4251L166.156 44L127.049 73.4538M160.308 64.4251L154.515 63.4662M160.308 64.4251L157.013 78.4477M140.88 63.1767L138.188 78.7374L132.043 78.4477M132.282 68.994L122 69.5211M159.224 71.9801L164.789 72.4307" stroke="black" stroke-linecap="round"/>
</svg>
