<svg width="74" height="93" viewBox="0 0 74 93" fill="none" xmlns="http://www.w3.org/2000/svg">
<path fill-rule="evenodd" clip-rule="evenodd" d="M38 43L38 93L34 93L34 43C34 41.8954 34.8954 41 36 41C37.1046 41 38 41.8954 38 43Z" fill="#877A6F"/>
<path fill-rule="evenodd" clip-rule="evenodd" d="M38 43L38 93L34 93L34 43C34 41.8954 34.8954 41 36 41C37.1046 41 38 41.8954 38 43Z" fill="#877A6F"/>
<path fill-rule="evenodd" clip-rule="evenodd" d="M37 42L37 93L33 93L33 42C33 40.8954 33.8954 40 35 40C36.1046 40 37 40.8954 37 42Z" fill="#ABA094"/>
<path fill-rule="evenodd" clip-rule="evenodd" d="M35.2239 71.6566C36.2455 71.2368 37.2225 71.2302 37.406 71.6417L45.5 92.5L42.1562 92.1047L33.7065 73.1617C33.5229 72.7502 34.2023 72.0763 35.2239 71.6566Z" fill="#877A6F"/>
<path fill-rule="evenodd" clip-rule="evenodd" d="M34.4146 70.1719C35.4788 69.742 36.4008 69.7114 36.5868 70.1719L45.4999 93L41.3214 92.99L33.0913 71.5555C32.9053 71.095 33.3505 70.6017 34.4146 70.1719Z" fill="#ABA094"/>
<path d="M1 4C1 2.34315 2.34315 1 4 1H71C72.6569 1 74 2.34315 74 4V40C74 41.6569 72.6569 43 71 43H4C2.34315 43 1 41.6569 1 40V4Z" fill="#877A6F"/>
<path d="M0 3C0 1.34315 1.34315 0 3 0H70C71.6569 0 73 1.34315 73 3V39C73 40.6569 71.6569 42 70 42H3C1.34315 42 0 40.6569 0 39V3Z" fill="#ABA094"/>
<path d="M60.9016 33.0559L60.4136 29.3599V29.1119L61.5016 28.7119H61.8056L61.3816 33.0559H60.9016ZM61.2216 33.7599C61.3816 33.7599 61.5122 33.8186 61.6136 33.9359C61.7202 34.0532 61.7736 34.1999 61.7736 34.3759C61.7736 34.4986 61.7362 34.6159 61.6616 34.7279C61.5869 34.8346 61.4936 34.9199 61.3816 34.9839C61.2696 35.0479 61.1602 35.0799 61.0536 35.0799C60.8936 35.0799 60.7602 35.0212 60.6536 34.9039C60.5522 34.7866 60.5016 34.6399 60.5016 34.4639C60.5016 34.3412 60.5389 34.2266 60.6136 34.1199C60.6882 34.0079 60.7816 33.9199 60.8936 33.8559C61.0056 33.7919 61.1149 33.7599 61.2216 33.7599Z" fill="black"/>
<path d="M59.4048 35H57.8848V34.424L57.1408 35.016C56.9701 35.0587 56.7648 35.08 56.5248 35.08C56.1728 35.08 55.8555 34.9893 55.5728 34.808C55.2955 34.6213 55.0768 34.3707 54.9168 34.056C54.7621 33.7413 54.6848 33.3947 54.6848 33.016C54.6848 32.6053 54.8101 32.2213 55.0608 31.864C55.3115 31.5013 55.6235 31.2133 55.9968 31C56.3755 30.7813 56.7408 30.672 57.0928 30.672C57.3861 30.672 57.6528 30.7547 57.8928 30.92V29.272L57.1808 28.776V28.528L58.5488 28.016H58.8528V34.4L59.5648 34.68L59.4048 35ZM56.9328 34.4C57.0928 34.4 57.2448 34.3787 57.3888 34.336C57.5381 34.288 57.7035 34.2 57.8848 34.072V32.248C57.8528 31.9813 57.7275 31.7653 57.5088 31.6C57.2955 31.4293 57.0021 31.344 56.6288 31.344C56.0261 31.344 55.7248 31.7733 55.7248 32.632C55.7248 33.1333 55.8288 33.5547 56.0368 33.896C56.2448 34.232 56.5435 34.4 56.9328 34.4Z" fill="black"/>
<path d="M53.3123 30.68C53.4883 30.68 53.643 30.728 53.7763 30.824C53.9097 30.92 54.0137 31.0533 54.0883 31.224L53.5603 31.888H53.2563C53.235 31.7546 53.195 31.6613 53.1363 31.608C53.083 31.5493 53.0083 31.52 52.9123 31.52C52.795 31.52 52.6697 31.552 52.5363 31.616C52.4083 31.6746 52.2617 31.7893 52.0963 31.96V34.344L53.2163 34.688L53.0563 35.008H50.4243V34.76L51.1363 34.2V31.936L50.4243 31.52V31.272L51.7923 30.6L52.0403 31.584L52.8723 30.736C52.9843 30.6933 53.131 30.672 53.3123 30.672V30.68Z" fill="black"/>
<path d="M47.5852 30.672C47.9372 30.672 48.2519 30.7653 48.5292 30.952C48.8119 31.1333 49.0306 31.3813 49.1852 31.696C49.3452 32.0107 49.4252 32.3573 49.4252 32.736C49.4252 33.1467 49.2999 33.5333 49.0492 33.896C48.7986 34.2533 48.4839 34.5413 48.1052 34.76C47.7319 34.9733 47.3692 35.08 47.0172 35.08C46.6652 35.08 46.3479 34.9893 46.0652 34.808C45.7879 34.6213 45.5692 34.3707 45.4092 34.056C45.2546 33.7413 45.1772 33.3947 45.1772 33.016C45.1772 32.6053 45.3026 32.2213 45.5532 31.864C45.8039 31.5013 46.1159 31.2133 46.4892 31C46.8679 30.7813 47.2332 30.672 47.5852 30.672ZM47.1212 31.344C46.5186 31.344 46.2172 31.7733 46.2172 32.632C46.2172 33.1387 46.3266 33.5627 46.5452 33.904C46.7639 34.24 47.0759 34.408 47.4812 34.408C48.0839 34.408 48.3852 33.976 48.3852 33.112C48.3852 32.6107 48.2759 32.192 48.0572 31.856C47.8386 31.5147 47.5266 31.344 47.1212 31.344Z" fill="black"/>
<path d="M44.5682 31L42.7842 35H42.1762L41.3442 32.96L40.3122 35H39.7042L38.4562 31.952L37.7122 31.52V31.272L39.0802 30.6L39.3842 31.808L40.3602 34.184L41.1442 32.496L40.9202 31.952L40.1762 31.52V31.272L41.5442 30.6L41.8482 31.808L42.8002 34.12L43.7602 31.88L42.6482 31.072L42.8082 30.752H44.5682V31Z" fill="black"/>
<path d="M36.0786 33.584C36.0786 33.4187 36.0119 33.264 35.8786 33.12C35.7453 32.976 35.5773 32.8453 35.3746 32.728C35.1773 32.6053 34.9079 32.456 34.5666 32.28C34.1613 32.0667 33.8359 31.8853 33.5906 31.736C33.3453 31.5813 33.1346 31.4 32.9586 31.192C32.7879 30.984 32.7026 30.7547 32.7026 30.504C32.7026 30.2373 32.8146 29.952 33.0386 29.648C33.2626 29.3387 33.5346 29.08 33.8546 28.872C34.1799 28.6587 34.4786 28.552 34.7506 28.552C35.0813 28.552 35.4653 28.592 35.9026 28.672C36.3399 28.752 36.6599 28.8373 36.8626 28.928V30.48H36.5586C36.2973 30.048 36.0093 29.712 35.6946 29.472C35.3853 29.232 35.0599 29.112 34.7186 29.112C34.4146 29.112 34.1719 29.208 33.9906 29.4C33.8146 29.5867 33.7266 29.832 33.7266 30.136C33.7266 30.312 33.7933 30.4773 33.9266 30.632C34.0653 30.7813 34.2333 30.9147 34.4306 31.032C34.6333 31.1493 34.9133 31.3013 35.2706 31.488C35.6653 31.6853 35.9853 31.8613 36.2306 32.016C36.4759 32.1653 36.6813 32.3413 36.8466 32.544C37.0173 32.7413 37.1026 32.9653 37.1026 33.216C37.1026 33.4827 36.9826 33.7707 36.7426 34.08C36.5026 34.384 36.2093 34.6427 35.8626 34.856C35.5213 35.064 35.2093 35.168 34.9266 35.168C34.5799 35.168 34.1666 35.128 33.6866 35.048C33.2119 34.968 32.8706 34.8827 32.6626 34.792V33.24H32.9666C33.2386 33.672 33.5479 34.008 33.8946 34.248C34.2413 34.488 34.5986 34.608 34.9666 34.608C35.1853 34.608 35.3799 34.56 35.5506 34.464C35.7213 34.368 35.8519 34.2427 35.9426 34.088C36.0333 33.928 36.0786 33.76 36.0786 33.584Z" fill="black"/>
<path d="M27.8556 35.016C27.6422 35.0587 27.3862 35.08 27.0876 35.08C26.7356 35.08 26.4182 34.9893 26.1356 34.808C25.8582 34.6213 25.6396 34.3707 25.4796 34.056C25.3249 33.7413 25.2476 33.3947 25.2476 33.016C25.2476 32.6053 25.3729 32.2213 25.6236 31.864C25.8742 31.5013 26.1862 31.2133 26.5596 31C26.9382 30.7813 27.3036 30.672 27.6556 30.672C28.1622 30.672 28.5542 30.872 28.8316 31.272C29.1142 31.672 29.2556 32.2 29.2556 32.856H26.2956C26.3276 33.3093 26.4502 33.68 26.6636 33.968C26.8822 34.256 27.1782 34.4 27.5516 34.4C27.8982 34.4 28.3916 34.1307 29.0316 33.592L29.2716 33.896L27.8556 35.016ZM27.1916 31.344C26.6156 31.344 26.3142 31.7387 26.2876 32.528H28.1596C28.1116 32.24 28.0609 32.0213 28.0076 31.872C27.9596 31.7173 27.8716 31.592 27.7436 31.496C27.6209 31.3947 27.4369 31.344 27.1916 31.344Z" fill="black"/>
<path d="M24.3258 35H22.8058V32.304C22.8058 32.0107 22.7604 31.8053 22.6698 31.688C22.5791 31.5707 22.4164 31.512 22.1818 31.512C22.0058 31.512 21.8298 31.544 21.6538 31.608C21.4831 31.672 21.2804 31.7947 21.0458 31.976V34.4L21.7658 34.68L21.6058 35H19.3738V34.752L20.0858 34.192V29.272L19.3738 28.776V28.528L20.7418 28.016H21.0458V31.6L22.1418 30.736C22.2538 30.6933 22.4004 30.672 22.5818 30.672C22.9444 30.672 23.2324 30.784 23.4458 31.008C23.6591 31.2267 23.7658 31.5253 23.7658 31.904V34.4L24.4858 34.68L24.3258 35Z" fill="black"/>
<path d="M18.5336 30.568L18.2936 30.648L17.2296 29.072H16.2536V34.392L17.0936 34.68L16.9336 35H14.5016V34.752L15.2536 34.16V29.072H14.3016L13.2376 30.648L12.9976 30.568V28.568L13.4296 28.712H18.1016L18.5336 28.568V30.568Z" fill="black"/>
<path d="M44.6487 14H42.4167V13.752L43.1287 13.192V8.27199L42.4167 7.77599V7.52799L43.7847 7.01599H44.0887V13.4L44.8087 13.68L44.6487 14Z" fill="black"/>
<path d="M41.6956 14H39.4636V13.752L40.1756 13.192V8.27199L39.4636 7.77599V7.52799L40.8316 7.01599H41.1356V13.4L41.8556 13.68L41.6956 14Z" fill="black"/>
<path d="M38.7419 14H37.2219V13.168L36.2059 14.016C36.0939 14.0586 35.9472 14.08 35.7659 14.08C35.4032 14.08 35.1152 13.9706 34.9019 13.752C34.6885 13.528 34.5819 13.2266 34.5819 12.848V10.936L33.8699 10.52V10.272L35.2379 9.59998H35.5419V12.448C35.5419 12.7413 35.5872 12.9466 35.6779 13.064C35.7685 13.1813 35.9312 13.24 36.1659 13.24C36.3312 13.24 36.4939 13.2106 36.6539 13.152C36.8139 13.088 37.0032 12.9653 37.2219 12.784V10.936L36.5099 10.52V10.272L37.8779 9.59998H38.1819V13.4L38.9019 13.68L38.7419 14Z" fill="black"/>
<path d="M31.1799 10.9361C31.5426 10.9361 31.8279 10.8374 32.0359 10.6401C32.2493 10.4427 32.3559 10.1707 32.3559 9.82408C32.3559 9.33341 32.2306 8.93341 31.9799 8.62408C31.7346 8.30941 31.3746 8.15208 30.8999 8.15208C30.5373 8.15208 30.2066 8.25608 29.9079 8.46408V13.3441L31.1479 13.6881L30.9879 14.0081H28.1559V13.7601L28.9079 13.1681V8.30408L28.0759 8.03208L28.2359 7.71208H29.1639C29.6813 7.71208 30.1906 7.69608 30.6919 7.66408C31.0653 7.64275 31.3399 7.63208 31.5159 7.63208C31.8893 7.63208 32.2199 7.71208 32.5079 7.87208C32.8013 8.02675 33.0279 8.24275 33.1879 8.52008C33.3479 8.79741 33.4279 9.10408 33.4279 9.44008C33.4279 9.81341 33.2919 10.1654 33.0199 10.4961C32.7479 10.8267 32.4013 11.0854 31.9799 11.2721C31.5586 11.4587 31.1453 11.5414 30.7399 11.5201L30.3639 11.2481L30.5239 10.9281H31.1719L31.1799 10.9361Z" fill="black"/>
</svg>
