<svg id="visual" viewBox="0 0 900 600" width="900" height="600" xmlns="http://www.w3.org/2000/svg" xmlns:xlink="http://www.w3.org/1999/xlink" version="1.1"><path d="M0 114L21.5 117.8C43 121.7 86 129.3 128.8 126.8C171.7 124.3 214.3 111.7 257.2 106.8C300 102 343 105 385.8 113.2C428.7 121.3 471.3 134.7 514.2 132.7C557 130.7 600 113.3 642.8 108.8C685.7 104.3 728.3 112.7 771.2 111.7C814 110.7 857 100.3 878.5 95.2L900 90L900 0L878.5 0C857 0 814 0 771.2 0C728.3 0 685.7 0 642.8 0C600 0 557 0 514.2 0C471.3 0 428.7 0 385.8 0C343 0 300 0 257.2 0C214.3 0 171.7 0 128.8 0C86 0 43 0 21.5 0L0 0Z" fill="#6dc9c6"></path><path d="M0 115L21.5 109.2C43 103.3 86 91.7 128.8 91.2C171.7 90.7 214.3 101.3 257.2 101C300 100.7 343 89.3 385.8 87C428.7 84.7 471.3 91.3 514.2 92.3C557 93.3 600 88.7 642.8 90C685.7 91.3 728.3 98.7 771.2 103.5C814 108.3 857 110.7 878.5 111.8L900 113L900 0L878.5 0C857 0 814 0 771.2 0C728.3 0 685.7 0 642.8 0C600 0 557 0 514.2 0C471.3 0 428.7 0 385.8 0C343 0 300 0 257.2 0C214.3 0 171.7 0 128.8 0C86 0 43 0 21.5 0L0 0Z" fill="#4dc3af"></path><path d="M0 61L21.5 62.5C43 64 86 67 128.8 70.8C171.7 74.7 214.3 79.3 257.2 79.7C300 80 343 76 385.8 75.7C428.7 75.3 471.3 78.7 514.2 78.3C557 78 600 74 642.8 69.8C685.7 65.7 728.3 61.3 771.2 62.3C814 63.3 857 69.7 878.5 72.8L900 76L900 0L878.5 0C857 0 814 0 771.2 0C728.3 0 685.7 0 642.8 0C600 0 557 0 514.2 0C471.3 0 428.7 0 385.8 0C343 0 300 0 257.2 0C214.3 0 171.7 0 128.8 0C86 0 43 0 21.5 0L0 0Z" fill="#3bbc90"></path><path d="M0 53L21.5 50.2C43 47.3 86 41.7 128.8 43.7C171.7 45.7 214.3 55.3 257.2 58.3C300 61.3 343 57.7 385.8 58C428.7 58.3 471.3 62.7 514.2 62.2C557 61.7 600 56.3 642.8 53.7C685.7 51 728.3 51 771.2 52.2C814 53.3 857 55.7 878.5 56.8L900 58L900 0L878.5 0C857 0 814 0 771.2 0C728.3 0 685.7 0 642.8 0C600 0 557 0 514.2 0C471.3 0 428.7 0 385.8 0C343 0 300 0 257.2 0C214.3 0 171.7 0 128.8 0C86 0 43 0 21.5 0L0 0Z" fill="#40b36a"></path><path d="M0 42L21.5 41C43 40 86 38 128.8 36.5C171.7 35 214.3 34 257.2 34.3C300 34.7 343 36.3 385.8 33.5C428.7 30.7 471.3 23.3 514.2 21.5C557 19.7 600 23.3 642.8 23C685.7 22.7 728.3 18.3 771.2 18.5C814 18.7 857 23.3 878.5 25.7L900 28L900 0L878.5 0C857 0 814 0 771.2 0C728.3 0 685.7 0 642.8 0C600 0 557 0 514.2 0C471.3 0 428.7 0 385.8 0C343 0 300 0 257.2 0C214.3 0 171.7 0 128.8 0C86 0 43 0 21.5 0L0 0Z" fill="#51a83e"></path></svg>