<svg width="73" height="125" viewBox="0 0 73 125" fill="none" xmlns="http://www.w3.org/2000/svg">
<path d="M58 26L18 111" stroke="#BEBBBB" stroke-width="7" stroke-linecap="round"/>
<path d="M8 123.539L16.9621 106C17.8328 106.902 18.9678 107.818 19.9495 109.095C20.8392 110.252 20.6894 112.108 20.5 112.5C20.0021 113.532 13.4769 119.928 11.4853 122.507C9.89201 124.57 8.4979 124.054 8 123.539Z" fill="#BEBBBB" stroke="#BEBBBB" stroke-linecap="round"/>
<path d="M53.7812 24L11.8425 108.06" stroke="#D9D9D9" stroke-width="7" stroke-linecap="round"/>
<path d="M58 26L68.385 31.7694" stroke="#A8A4A4" stroke-width="7" stroke-linecap="round"/>
<path d="M53.7812 24L43 19" stroke="#A8A4A4" stroke-width="7" stroke-linecap="round"/>
<path d="M58 23L66 5" stroke="#ABA094" stroke-width="7" stroke-linecap="round"/>
<path d="M69 29L44 17" stroke="#BBADA0" stroke-width="7" stroke-linecap="round"/>
<path d="M57 23L66 4" stroke="#BBADA0" stroke-width="7" stroke-linecap="round"/>
<path d="M8.1959 123.678L16.4103 105.777C15.1629 105.653 13.7406 105.33 12.13 105.35C10.6705 105.369 9.30693 106.636 9.11625 107.027C8.61491 108.057 7.63706 117.142 6.8464 120.303C6.21388 122.832 7.48252 123.607 8.1959 123.678Z" fill="#D9D9D9" stroke="#D9D9D9" stroke-linecap="round"/>
</svg>
