<svg width="73" height="125" viewBox="0 0 73 125" fill="none" xmlns="http://www.w3.org/2000/svg">
<path d="M58.0001 26L18.0001 111" stroke="#BEBBBB" stroke-width="7" stroke-linecap="round"/>
<path d="M8.00009 123.539L16.9622 106C17.8329 106.902 18.9679 107.818 19.9496 109.095C20.8393 110.252 20.6895 112.108 20.5001 112.5C20.0022 113.532 13.477 119.928 11.4854 122.507C9.8921 124.57 8.49799 124.054 8.00009 123.539Z" fill="#BEBBBB" stroke="#BEBBBB" stroke-linecap="round"/>
<path d="M53.7813 24L11.8426 108.06" stroke="#D9D9D9" stroke-width="7" stroke-linecap="round"/>
<path d="M58.0001 26L68.3851 31.7694" stroke="#A8A4A4" stroke-width="7" stroke-linecap="round"/>
<path d="M53.7813 24L43.0001 19" stroke="#A8A4A4" stroke-width="7" stroke-linecap="round"/>
<path d="M58.0001 23L66.0001 5" stroke="#947F15" stroke-width="7" stroke-linecap="round"/>
<path d="M69.0001 29L44.0001 17" stroke="#FFD700" stroke-width="7" stroke-linecap="round"/>
<path d="M57.0001 23L66.0001 4" stroke="#FFD700" stroke-width="7" stroke-linecap="round"/>
<path d="M8.19599 123.678L16.4104 105.777C15.163 105.653 13.7406 105.33 12.1301 105.35C10.6706 105.369 9.30702 106.636 9.11635 107.027C8.615 108.057 7.63715 117.142 6.84649 120.303C6.21397 122.832 7.48261 123.607 8.19599 123.678Z" fill="#D9D9D9" stroke="#D9D9D9" stroke-linecap="round"/>
</svg>
